<svg id="Layer_1" data-name="Layer 1" xmlns="http://www.w3.org/2000/svg" width="169.09" height="169.09" viewBox="0 0 169.09 169.09">
  <defs>
    <style>
      .cls-1 {
        fill: #f7d574;
      }

      .cls-2 {
        fill: #d38548;
      }
    </style>
  </defs>
  <g>
    <circle class="cls-1" cx="84.55" cy="84.55" r="84.55"/>
    <g>
      <path class="cls-2" d="M41.64,53.91H79a0,0,0,0,1,0,0v61.28a0,0,0,0,1,0,0H41.64A16.54,16.54,0,0,1,25.1,98.64V70.45A16.54,16.54,0,0,1,41.64,53.91Z"/>
      <polygon class="cls-2" points="32.55 84.55 108.86 144.61 108.86 24.48 32.55 84.55"/>
      <path class="cls-2" d="M137.52,40.78h0a1.83,1.83,0,0,1,1.83,1.83,191.72,191.72,0,0,1,0,83.87,1.83,1.83,0,0,1-1.83,1.83h0a1.83,1.83,0,0,1-1.83-1.83,213.7,213.7,0,0,0,0-83.87A1.83,1.83,0,0,1,137.52,40.78Z"/>
      <path class="cls-2" d="M120.09,50.13h0a1.67,1.67,0,0,1,1.83,1.44,119.62,119.62,0,0,1,0,65.95,1.67,1.67,0,0,1-1.83,1.44h0a1.67,1.67,0,0,1-1.84-1.44,132.93,132.93,0,0,0,0-65.95A1.67,1.67,0,0,1,120.09,50.13Z"/>
    </g>
  </g>
</svg>
